<?xml version="1.0" encoding="UTF-8"?>
<svg xmlns="http://www.w3.org/2000/svg" xmlns:xlink="http://www.w3.org/1999/xlink" width="100px" height="90px" viewBox="0 0 100 90" version="1.1">
<defs>
<clipPath id="clip1">
  <path d="M 25.128906 15.148438 L 80.800781 15.148438 L 80.800781 53.03125 L 25.128906 53.03125 Z M 25.128906 15.148438 "/>
</clipPath>
</defs>
<g id="surface1">
<g clip-path="url(#clip1)" clip-rule="nonzero">
<path style=" stroke:none;fill-rule:evenodd;fill:rgb(100%,100%,100%);fill-opacity:1;" d="M 27.828125 45.601562 L 27.828125 26.859375 L 30.605469 26.859375 L 30.605469 24.433594 L 27.789062 24.433594 C 26.324219 24.433594 25.128906 25.511719 25.128906 26.828125 L 25.128906 45.636719 C 25.128906 46.953125 26.324219 48.03125 27.789062 48.03125 L 45.644531 48.03125 C 43.148438 47.074219 40.53125 46.390625 37.851562 45.996094 C 36.636719 45.816406 35.414062 45.699219 34.183594 45.640625 C 33.761719 45.621094 33.335938 45.609375 32.914062 45.601562 L 31.691406 45.601562 L 30.609375 45.609375 L 30.609375 45.601562 Z M 60.367188 40.949219 C 57.175781 42.332031 54.144531 44 51.328125 45.933594 C 53.988281 43.054688 57.023438 40.476562 60.367188 38.257812 L 60.367188 19.035156 C 56.914062 19.933594 53.679688 21.398438 50.820312 23.359375 C 54.03125 20.359375 58.046875 18.152344 62.480469 16.949219 L 62.480469 40.085938 C 61.769531 40.359375 61.0625 40.648438 60.367188 40.949219 M 70.640625 45.601562 L 70.640625 29.378906 C 70.710938 29.382812 70.785156 29.386719 70.855469 29.386719 L 73.339844 29.386719 L 73.339844 45.636719 C 73.339844 46.953125 72.140625 48.027344 70.679688 48.027344 L 52.824219 48.027344 C 56.851562 46.488281 61.175781 45.664062 65.554688 45.601562 L 66.773438 45.601562 L 67.859375 45.609375 L 67.859375 45.601562 Z M 64.203125 42.269531 L 64.203125 21.035156 L 66.316406 21.035156 L 66.316406 44.207031 C 64.324219 44.195312 62.332031 44.335938 60.367188 44.625 C 57.160156 45.097656 54.039062 45.964844 51.09375 47.203125 C 53.835938 45.242188 56.992188 43.796875 60.367188 42.953125 C 61.0625 42.78125 61.765625 42.632812 62.480469 42.511719 C 63.050781 42.414062 63.625 42.335938 64.203125 42.269531 M 42.449219 50.703125 L 47.261719 50.703125 L 47.261719 50.0625 C 47.261719 49.738281 47.59375 49.472656 48.003906 49.472656 L 50.464844 49.472656 C 50.871094 49.472656 51.207031 49.738281 51.207031 50.0625 L 51.207031 50.703125 L 56.015625 50.703125 C 56.652344 50.703125 57.175781 51.117188 57.175781 51.625 L 57.175781 52.15625 C 57.175781 52.660156 56.652344 53.074219 56.015625 53.074219 L 42.449219 53.074219 C 41.8125 53.074219 41.292969 52.660156 41.292969 52.15625 L 41.292969 51.625 C 41.292969 51.117188 41.8125 50.703125 42.449219 50.703125 M 34.265625 42.269531 L 34.265625 21.035156 L 32.152344 21.035156 L 32.152344 44.207031 C 33.433594 44.199219 34.714844 44.253906 35.988281 44.371094 C 39.933594 44.734375 43.78125 45.691406 47.375 47.203125 C 43.59375 44.5 39.058594 42.792969 34.265625 42.269531 M 74.105469 15.15625 L 75.992188 15.15625 C 76.140625 15.15625 76.261719 15.265625 76.261719 15.398438 L 76.261719 17.097656 C 76.261719 17.230469 76.140625 17.335938 75.992188 17.335938 L 74.105469 17.335938 C 73.960938 17.335938 73.839844 17.230469 73.839844 17.097656 L 73.839844 15.398438 C 73.839844 15.265625 73.960938 15.15625 74.105469 15.15625 M 70.855469 21.410156 L 75.519531 21.410156 C 75.589844 21.414062 75.660156 21.386719 75.710938 21.339844 L 76.675781 20.472656 C 76.726562 20.429688 76.753906 20.367188 76.753906 20.304688 L 76.753906 18.019531 C 76.753906 17.886719 76.871094 17.78125 77.019531 17.78125 L 80.519531 17.78125 C 80.667969 17.78125 80.789062 17.886719 80.789062 18.019531 L 80.789062 21.171875 C 80.789062 21.300781 80.667969 21.410156 80.519531 21.410156 L 77.984375 21.410156 C 77.914062 21.410156 77.84375 21.4375 77.796875 21.480469 L 76.832031 22.351562 C 76.78125 22.394531 76.75 22.457031 76.753906 22.519531 L 76.753906 26.71875 C 76.753906 26.851562 76.632812 26.957031 76.484375 26.957031 L 70.855469 26.957031 C 70.707031 26.957031 70.589844 26.851562 70.589844 26.71875 L 70.589844 21.652344 C 70.589844 21.519531 70.707031 21.414062 70.855469 21.410156 M 38.101562 40.949219 C 41.292969 42.332031 44.324219 44 47.140625 45.933594 C 44.484375 43.054688 41.449219 40.476562 38.101562 38.257812 L 38.101562 19.035156 C 41.554688 19.933594 44.789062 21.398438 47.648438 23.359375 C 44.433594 20.359375 40.421875 18.152344 35.988281 16.949219 L 35.988281 40.085938 C 36.699219 40.359375 37.402344 40.648438 38.101562 40.949219 M 38.101562 40.949219 "/>
</g>
<path style=" stroke:none;fill-rule:nonzero;fill:rgb(100%,100%,100%);fill-opacity:1;" d="M 20.507812 60.191406 L 20.507812 61.582031 L 23.527344 61.582031 L 23.527344 63.378906 L 20.507812 63.378906 L 20.507812 64.917969 L 23.929688 64.917969 L 23.929688 66.816406 L 17.871094 66.816406 L 17.871094 58.289062 L 23.929688 58.289062 L 23.929688 60.1875 Z M 34.011719 66.816406 L 31.375 66.816406 L 27.867188 62.050781 L 27.867188 66.816406 L 25.234375 66.816406 L 25.234375 58.289062 L 27.867188 58.289062 L 31.375 63.113281 L 31.375 58.289062 L 34.011719 58.289062 Z M 39.085938 66.902344 C 37.984375 66.902344 37.082031 66.664062 36.371094 66.191406 C 35.664062 65.71875 35.28125 65.046875 35.230469 64.167969 L 38.039062 64.167969 C 38.066406 64.464844 38.164062 64.683594 38.335938 64.820312 C 38.503906 64.957031 38.722656 65.027344 38.992188 65.027344 C 39.234375 65.027344 39.433594 64.972656 39.589844 64.867188 C 39.746094 64.757812 39.828125 64.601562 39.828125 64.40625 C 39.828125 64.160156 39.695312 63.964844 39.433594 63.832031 C 39.175781 63.695312 38.757812 63.539062 38.171875 63.371094 C 37.554688 63.183594 37.058594 63.003906 36.675781 62.832031 C 36.296875 62.660156 35.964844 62.402344 35.679688 62.066406 C 35.398438 61.734375 35.257812 61.296875 35.257812 60.753906 C 35.257812 60.207031 35.410156 59.738281 35.714844 59.347656 C 36.019531 58.957031 36.441406 58.660156 36.976562 58.460938 C 37.515625 58.257812 38.125 58.15625 38.804688 58.15625 C 39.90625 58.15625 40.785156 58.390625 41.445312 58.855469 C 42.101562 59.316406 42.453125 59.96875 42.503906 60.804688 L 39.640625 60.804688 C 39.628906 60.546875 39.539062 60.355469 39.371094 60.226562 C 39.207031 60.097656 38.996094 60.03125 38.738281 60.03125 C 38.542969 60.03125 38.378906 60.085938 38.253906 60.1875 C 38.128906 60.292969 38.066406 60.445312 38.066406 60.636719 C 38.0625 60.796875 38.132812 60.9375 38.273438 61.054688 C 38.410156 61.171875 38.582031 61.269531 38.789062 61.355469 C 38.996094 61.441406 39.304688 61.546875 39.707031 61.675781 C 40.304688 61.863281 40.800781 62.046875 41.191406 62.230469 C 41.578125 62.410156 41.914062 62.664062 42.199219 62.992188 C 42.480469 63.316406 42.621094 63.730469 42.621094 64.226562 C 42.621094 64.738281 42.480469 65.191406 42.199219 65.597656 C 41.914062 66 41.507812 66.320312 40.972656 66.554688 C 40.441406 66.785156 39.8125 66.902344 39.085938 66.902344 M 46.476562 58.289062 L 46.476562 66.816406 L 43.84375 66.816406 L 43.84375 58.289062 Z M 55.117188 58.289062 L 55.117188 60.175781 L 52.589844 60.175781 L 52.589844 66.816406 L 49.957031 66.816406 L 49.957031 60.175781 L 47.457031 60.175781 L 47.457031 58.289062 Z M 58.730469 60.191406 L 58.730469 61.582031 L 61.753906 61.582031 L 61.753906 63.378906 L 58.730469 63.378906 L 58.730469 64.917969 L 62.15625 64.917969 L 62.15625 66.816406 L 56.097656 66.816406 L 56.097656 58.289062 L 62.15625 58.289062 L 62.15625 60.1875 Z M 63.136719 62.53125 C 63.136719 61.695312 63.332031 60.949219 63.71875 60.289062 C 64.113281 59.632812 64.667969 59.121094 65.382812 58.757812 C 66.097656 58.390625 66.921875 58.207031 67.855469 58.207031 C 69.035156 58.207031 70.03125 58.492188 70.835938 59.0625 C 71.640625 59.628906 72.160156 60.398438 72.394531 61.375 L 69.5625 61.375 C 69.390625 61.050781 69.152344 60.804688 68.855469 60.636719 C 68.554688 60.464844 68.207031 60.378906 67.816406 60.378906 C 67.203125 60.382812 66.71875 60.578125 66.355469 60.96875 C 65.992188 61.359375 65.8125 61.878906 65.8125 62.53125 C 65.8125 63.195312 65.992188 63.722656 66.355469 64.117188 C 66.71875 64.503906 67.203125 64.699219 67.816406 64.699219 C 68.207031 64.699219 68.554688 64.617188 68.855469 64.445312 C 69.152344 64.277344 69.390625 64.03125 69.5625 63.707031 L 72.394531 63.707031 C 72.160156 64.683594 71.640625 65.453125 70.835938 66.023438 C 70.03125 66.59375 69.035156 66.875 67.855469 66.875 C 66.921875 66.875 66.097656 66.695312 65.382812 66.328125 C 64.667969 65.960938 64.113281 65.449219 63.71875 64.789062 C 63.332031 64.132812 63.136719 63.382812 63.136719 62.53125 M 82.125 58.289062 L 82.125 66.816406 L 79.488281 66.816406 L 79.488281 63.390625 L 76.28125 63.390625 L 76.28125 66.816406 L 73.648438 66.816406 L 73.648438 58.289062 L 76.28125 58.289062 L 76.28125 61.496094 L 79.488281 61.496094 L 79.488281 58.289062 Z M 82.125 58.289062 "/>
</g>
</svg>
